<svg xmlns="http://www.w3.org/2000/svg" width="102.4" height="102.4" viewBox="0 0 1024 1024">
  <defs>
    <style>
      .cls-1 {
        fill: currentcolor;
        fill-rule: evenodd;
      }
    </style>
  </defs>
  <path id="Polygon_1" data-name="Polygon 1" class="cls-1" d="M718.719-.012L1020.99,562.653,579.262,1024,3.994,746.459,90.183,113.587ZM637.405,554.647c-1.474-51.324-42.032-83.369-102.451-104.469-41.717-14.529-68.9-18.909-69.359-34.867-0.341-11.861,14.321-22,35.191-22.618,18.26-.537,47.9,6.576,59.806,24.572l57.1-53.048c-12.388-26.4-43.108-46.43-83.659-53.439l-1.35-47.011-79.209,2.33,1.393,48.521c-52.507,14.71-91.52,52.981-90.146,100.855,1.5,52.4,43.837,80.079,92.761,97.632,37.9,13.993,77.486,28.584,78,46.483,0.409,14.233-20.493,21.97-42.074,22.605-32.016.942-62.031-11.125-78.534-32.006l-59.849,56.582c16.806,31.448,59.675,53.065,109.907,58.278l1.319,45.933,79.209-2.33-1.419-49.384C598.437,644.069,638.892,606.4,637.405,554.647ZM559.964,929.165L83.555,696.984,157.472,172.64,679.564,80.758,928.319,548.316Zm-10.7-92.114L167.181,650.975,226.463,230.75l418.723-73.637,199.5,374.714Z"/>
</svg>
